<mxfile host="app.diagrams.net" agent="Mozilla/5.0 (Windows NT 10.0; Win64; x64) AppleWebKit/537.36 (KHTML, like Gecko) Chrome/127.0.0.0 Safari/537.36 OPR/113.0.0.0" version="24.7.16">
  <diagram name="Страница — 1" id="4deNuANHQ5EADNNbdOS4">
    <mxGraphModel dx="2014" dy="634" grid="1" gridSize="10" guides="1" tooltips="1" connect="1" arrows="1" fold="1" page="1" pageScale="1" pageWidth="827" pageHeight="1169" math="0" shadow="0">
      <root>
        <mxCell id="0" />
        <mxCell id="1" parent="0" />
        <mxCell id="X9zF3I0g8b5chQOHOK3T-1" value="App" style="shape=module;align=left;spacingLeft=20;align=center;verticalAlign=top;whiteSpace=wrap;html=1;" vertex="1" parent="1">
          <mxGeometry x="30" y="10" width="150" height="90" as="geometry" />
        </mxCell>
        <mxCell id="X9zF3I0g8b5chQOHOK3T-2" value="main" style="html=1;whiteSpace=wrap;" vertex="1" parent="1">
          <mxGeometry x="70" y="45" width="90" height="25" as="geometry" />
        </mxCell>
        <mxCell id="X9zF3I0g8b5chQOHOK3T-3" value="WeatherStation" style="shape=module;align=left;spacingLeft=20;align=center;verticalAlign=top;whiteSpace=wrap;html=1;" vertex="1" parent="1">
          <mxGeometry x="230" y="10" width="550" height="360" as="geometry" />
        </mxCell>
        <mxCell id="X9zF3I0g8b5chQOHOK3T-4" value="WeatherInfo" style="swimlane;fontStyle=1;align=center;verticalAlign=top;childLayout=stackLayout;horizontal=1;startSize=26;horizontalStack=0;resizeParent=1;resizeParentMax=0;resizeLast=0;collapsible=1;marginBottom=0;whiteSpace=wrap;html=1;" vertex="1" parent="1">
          <mxGeometry x="560" y="90" width="160" height="112" as="geometry" />
        </mxCell>
        <mxCell id="X9zF3I0g8b5chQOHOK3T-5" value="+ temperature: double" style="text;strokeColor=none;fillColor=none;align=left;verticalAlign=top;spacingLeft=4;spacingRight=4;overflow=hidden;rotatable=0;points=[[0,0.5],[1,0.5]];portConstraint=eastwest;whiteSpace=wrap;html=1;" vertex="1" parent="X9zF3I0g8b5chQOHOK3T-4">
          <mxGeometry y="26" width="160" height="26" as="geometry" />
        </mxCell>
        <mxCell id="X9zF3I0g8b5chQOHOK3T-20" value="+ humidity: double" style="text;strokeColor=none;fillColor=none;align=left;verticalAlign=top;spacingLeft=4;spacingRight=4;overflow=hidden;rotatable=0;points=[[0,0.5],[1,0.5]];portConstraint=eastwest;whiteSpace=wrap;html=1;" vertex="1" parent="X9zF3I0g8b5chQOHOK3T-4">
          <mxGeometry y="52" width="160" height="26" as="geometry" />
        </mxCell>
        <mxCell id="X9zF3I0g8b5chQOHOK3T-21" value="+ pressure: double" style="text;strokeColor=none;fillColor=none;align=left;verticalAlign=top;spacingLeft=4;spacingRight=4;overflow=hidden;rotatable=0;points=[[0,0.5],[1,0.5]];portConstraint=eastwest;whiteSpace=wrap;html=1;" vertex="1" parent="X9zF3I0g8b5chQOHOK3T-4">
          <mxGeometry y="78" width="160" height="26" as="geometry" />
        </mxCell>
        <mxCell id="X9zF3I0g8b5chQOHOK3T-6" value="" style="line;strokeWidth=1;fillColor=none;align=left;verticalAlign=middle;spacingTop=-1;spacingLeft=3;spacingRight=3;rotatable=0;labelPosition=right;points=[];portConstraint=eastwest;strokeColor=inherit;" vertex="1" parent="X9zF3I0g8b5chQOHOK3T-4">
          <mxGeometry y="104" width="160" height="8" as="geometry" />
        </mxCell>
        <mxCell id="X9zF3I0g8b5chQOHOK3T-8" value="WeatherData" style="swimlane;fontStyle=1;align=center;verticalAlign=top;childLayout=stackLayout;horizontal=1;startSize=26;horizontalStack=0;resizeParent=1;resizeParentMax=0;resizeLast=0;collapsible=1;marginBottom=0;whiteSpace=wrap;html=1;" vertex="1" parent="1">
          <mxGeometry x="280" y="50" width="200" height="292" as="geometry" />
        </mxCell>
        <mxCell id="X9zF3I0g8b5chQOHOK3T-11" value="- m_temperature: double" style="text;strokeColor=none;fillColor=none;align=left;verticalAlign=top;spacingLeft=4;spacingRight=4;overflow=hidden;rotatable=0;points=[[0,0.5],[1,0.5]];portConstraint=eastwest;whiteSpace=wrap;html=1;" vertex="1" parent="X9zF3I0g8b5chQOHOK3T-8">
          <mxGeometry y="26" width="200" height="26" as="geometry" />
        </mxCell>
        <mxCell id="X9zF3I0g8b5chQOHOK3T-18" value="- m_humidity: double" style="text;strokeColor=none;fillColor=none;align=left;verticalAlign=top;spacingLeft=4;spacingRight=4;overflow=hidden;rotatable=0;points=[[0,0.5],[1,0.5]];portConstraint=eastwest;whiteSpace=wrap;html=1;" vertex="1" parent="X9zF3I0g8b5chQOHOK3T-8">
          <mxGeometry y="52" width="200" height="26" as="geometry" />
        </mxCell>
        <mxCell id="X9zF3I0g8b5chQOHOK3T-17" value="- m_pressure: double" style="text;strokeColor=none;fillColor=none;align=left;verticalAlign=top;spacingLeft=4;spacingRight=4;overflow=hidden;rotatable=0;points=[[0,0.5],[1,0.5]];portConstraint=eastwest;whiteSpace=wrap;html=1;" vertex="1" parent="X9zF3I0g8b5chQOHOK3T-8">
          <mxGeometry y="78" width="200" height="26" as="geometry" />
        </mxCell>
        <mxCell id="X9zF3I0g8b5chQOHOK3T-10" value="" style="line;strokeWidth=1;fillColor=none;align=left;verticalAlign=middle;spacingTop=-1;spacingLeft=3;spacingRight=3;rotatable=0;labelPosition=right;points=[];portConstraint=eastwest;strokeColor=inherit;" vertex="1" parent="X9zF3I0g8b5chQOHOK3T-8">
          <mxGeometry y="104" width="200" height="8" as="geometry" />
        </mxCell>
        <mxCell id="X9zF3I0g8b5chQOHOK3T-9" value="+ GetTemperature(): double" style="text;strokeColor=none;fillColor=none;align=left;verticalAlign=top;spacingLeft=4;spacingRight=4;overflow=hidden;rotatable=0;points=[[0,0.5],[1,0.5]];portConstraint=eastwest;whiteSpace=wrap;html=1;" vertex="1" parent="X9zF3I0g8b5chQOHOK3T-8">
          <mxGeometry y="112" width="200" height="26" as="geometry" />
        </mxCell>
        <mxCell id="X9zF3I0g8b5chQOHOK3T-12" value="+ GetHumidity(): double" style="text;strokeColor=none;fillColor=none;align=left;verticalAlign=top;spacingLeft=4;spacingRight=4;overflow=hidden;rotatable=0;points=[[0,0.5],[1,0.5]];portConstraint=eastwest;whiteSpace=wrap;html=1;" vertex="1" parent="X9zF3I0g8b5chQOHOK3T-8">
          <mxGeometry y="138" width="200" height="26" as="geometry" />
        </mxCell>
        <mxCell id="X9zF3I0g8b5chQOHOK3T-13" value="+ GetPressure(): double" style="text;strokeColor=none;fillColor=none;align=left;verticalAlign=top;spacingLeft=4;spacingRight=4;overflow=hidden;rotatable=0;points=[[0,0.5],[1,0.5]];portConstraint=eastwest;whiteSpace=wrap;html=1;" vertex="1" parent="X9zF3I0g8b5chQOHOK3T-8">
          <mxGeometry y="164" width="200" height="26" as="geometry" />
        </mxCell>
        <mxCell id="X9zF3I0g8b5chQOHOK3T-14" value="+ MeasurementsChanged(): void" style="text;strokeColor=none;fillColor=none;align=left;verticalAlign=top;spacingLeft=4;spacingRight=4;overflow=hidden;rotatable=0;points=[[0,0.5],[1,0.5]];portConstraint=eastwest;whiteSpace=wrap;html=1;" vertex="1" parent="X9zF3I0g8b5chQOHOK3T-8">
          <mxGeometry y="190" width="200" height="26" as="geometry" />
        </mxCell>
        <mxCell id="X9zF3I0g8b5chQOHOK3T-15" value="+ SetMeasurements(temp: double, humidity: double, pressure: double): void" style="text;strokeColor=none;fillColor=none;align=left;verticalAlign=top;spacingLeft=4;spacingRight=4;overflow=hidden;rotatable=0;points=[[0,0.5],[1,0.5]];portConstraint=eastwest;whiteSpace=wrap;html=1;" vertex="1" parent="X9zF3I0g8b5chQOHOK3T-8">
          <mxGeometry y="216" width="200" height="50" as="geometry" />
        </mxCell>
        <mxCell id="X9zF3I0g8b5chQOHOK3T-16" value="# GetChangedData: WeatherInfo" style="text;strokeColor=none;fillColor=none;align=left;verticalAlign=top;spacingLeft=4;spacingRight=4;overflow=hidden;rotatable=0;points=[[0,0.5],[1,0.5]];portConstraint=eastwest;whiteSpace=wrap;html=1;" vertex="1" parent="X9zF3I0g8b5chQOHOK3T-8">
          <mxGeometry y="266" width="200" height="26" as="geometry" />
        </mxCell>
        <mxCell id="X9zF3I0g8b5chQOHOK3T-19" value="Create" style="endArrow=open;endSize=12;dashed=1;html=1;rounded=0;" edge="1" parent="1" source="X9zF3I0g8b5chQOHOK3T-8" target="X9zF3I0g8b5chQOHOK3T-4">
          <mxGeometry width="160" relative="1" as="geometry">
            <mxPoint x="380" y="190" as="sourcePoint" />
            <mxPoint x="540" y="190" as="targetPoint" />
          </mxGeometry>
        </mxCell>
        <mxCell id="X9zF3I0g8b5chQOHOK3T-22" value="Observer" style="shape=module;align=left;spacingLeft=20;align=center;verticalAlign=top;whiteSpace=wrap;html=1;" vertex="1" parent="1">
          <mxGeometry x="55" y="410" width="735" height="330" as="geometry" />
        </mxCell>
        <mxCell id="X9zF3I0g8b5chQOHOK3T-24" value="&lt;span style=&quot;font-weight: 400;&quot;&gt;«interface» IObserver&amp;lt;T&amp;gt;&lt;/span&gt;" style="swimlane;fontStyle=1;align=center;verticalAlign=top;childLayout=stackLayout;horizontal=1;startSize=26;horizontalStack=0;resizeParent=1;resizeParentMax=0;resizeLast=0;collapsible=1;marginBottom=0;whiteSpace=wrap;html=1;" vertex="1" parent="1">
          <mxGeometry x="100" y="640" width="190" height="60" as="geometry" />
        </mxCell>
        <mxCell id="X9zF3I0g8b5chQOHOK3T-26" value="" style="line;strokeWidth=1;fillColor=none;align=left;verticalAlign=middle;spacingTop=-1;spacingLeft=3;spacingRight=3;rotatable=0;labelPosition=right;points=[];portConstraint=eastwest;strokeColor=inherit;" vertex="1" parent="X9zF3I0g8b5chQOHOK3T-24">
          <mxGeometry y="26" width="190" height="8" as="geometry" />
        </mxCell>
        <mxCell id="X9zF3I0g8b5chQOHOK3T-27" value="+ Update(data: T): void" style="text;strokeColor=none;fillColor=none;align=left;verticalAlign=top;spacingLeft=4;spacingRight=4;overflow=hidden;rotatable=0;points=[[0,0.5],[1,0.5]];portConstraint=eastwest;whiteSpace=wrap;html=1;" vertex="1" parent="X9zF3I0g8b5chQOHOK3T-24">
          <mxGeometry y="34" width="190" height="26" as="geometry" />
        </mxCell>
        <mxCell id="X9zF3I0g8b5chQOHOK3T-30" value="&lt;span style=&quot;font-weight: 400;&quot;&gt;«interface» IObservable&amp;lt;T&amp;gt;&lt;/span&gt;" style="swimlane;fontStyle=1;align=center;verticalAlign=top;childLayout=stackLayout;horizontal=1;startSize=26;horizontalStack=0;resizeParent=1;resizeParentMax=0;resizeLast=0;collapsible=1;marginBottom=0;whiteSpace=wrap;html=1;" vertex="1" parent="1">
          <mxGeometry x="100" y="450" width="290" height="112" as="geometry" />
        </mxCell>
        <mxCell id="X9zF3I0g8b5chQOHOK3T-31" value="" style="line;strokeWidth=1;fillColor=none;align=left;verticalAlign=middle;spacingTop=-1;spacingLeft=3;spacingRight=3;rotatable=0;labelPosition=right;points=[];portConstraint=eastwest;strokeColor=inherit;" vertex="1" parent="X9zF3I0g8b5chQOHOK3T-30">
          <mxGeometry y="26" width="290" height="8" as="geometry" />
        </mxCell>
        <mxCell id="X9zF3I0g8b5chQOHOK3T-32" value="+ RegisterObserver(IObserver&amp;lt;T&amp;gt;: observer): void" style="text;strokeColor=none;fillColor=none;align=left;verticalAlign=top;spacingLeft=4;spacingRight=4;overflow=hidden;rotatable=0;points=[[0,0.5],[1,0.5]];portConstraint=eastwest;whiteSpace=wrap;html=1;" vertex="1" parent="X9zF3I0g8b5chQOHOK3T-30">
          <mxGeometry y="34" width="290" height="26" as="geometry" />
        </mxCell>
        <mxCell id="X9zF3I0g8b5chQOHOK3T-34" value="+ NotifyObservers(): void" style="text;strokeColor=none;fillColor=none;align=left;verticalAlign=top;spacingLeft=4;spacingRight=4;overflow=hidden;rotatable=0;points=[[0,0.5],[1,0.5]];portConstraint=eastwest;whiteSpace=wrap;html=1;" vertex="1" parent="X9zF3I0g8b5chQOHOK3T-30">
          <mxGeometry y="60" width="290" height="26" as="geometry" />
        </mxCell>
        <mxCell id="X9zF3I0g8b5chQOHOK3T-33" value="+ RemoveObserver(IObserver&amp;lt;T&amp;gt;: observer): void" style="text;strokeColor=none;fillColor=none;align=left;verticalAlign=top;spacingLeft=4;spacingRight=4;overflow=hidden;rotatable=0;points=[[0,0.5],[1,0.5]];portConstraint=eastwest;whiteSpace=wrap;html=1;" vertex="1" parent="X9zF3I0g8b5chQOHOK3T-30">
          <mxGeometry y="86" width="290" height="26" as="geometry" />
        </mxCell>
        <mxCell id="X9zF3I0g8b5chQOHOK3T-35" value="Use" style="endArrow=open;endSize=12;dashed=1;html=1;rounded=0;" edge="1" parent="1" source="X9zF3I0g8b5chQOHOK3T-30" target="X9zF3I0g8b5chQOHOK3T-24">
          <mxGeometry width="160" relative="1" as="geometry">
            <mxPoint x="270" y="600" as="sourcePoint" />
            <mxPoint x="430" y="600" as="targetPoint" />
          </mxGeometry>
        </mxCell>
        <mxCell id="X9zF3I0g8b5chQOHOK3T-36" value="Observable&amp;lt;T&amp;gt;" style="swimlane;fontStyle=1;align=center;verticalAlign=top;childLayout=stackLayout;horizontal=1;startSize=26;horizontalStack=0;resizeParent=1;resizeParentMax=0;resizeLast=0;collapsible=1;marginBottom=0;whiteSpace=wrap;html=1;" vertex="1" parent="1">
          <mxGeometry x="450" y="463" width="290" height="164" as="geometry" />
        </mxCell>
        <mxCell id="X9zF3I0g8b5chQOHOK3T-37" value="- m_observers: set&amp;lt;IObserver&amp;lt;T&amp;gt;&amp;gt;" style="text;strokeColor=none;fillColor=none;align=left;verticalAlign=top;spacingLeft=4;spacingRight=4;overflow=hidden;rotatable=0;points=[[0,0.5],[1,0.5]];portConstraint=eastwest;whiteSpace=wrap;html=1;" vertex="1" parent="X9zF3I0g8b5chQOHOK3T-36">
          <mxGeometry y="26" width="290" height="26" as="geometry" />
        </mxCell>
        <mxCell id="X9zF3I0g8b5chQOHOK3T-38" value="" style="line;strokeWidth=1;fillColor=none;align=left;verticalAlign=middle;spacingTop=-1;spacingLeft=3;spacingRight=3;rotatable=0;labelPosition=right;points=[];portConstraint=eastwest;strokeColor=inherit;" vertex="1" parent="X9zF3I0g8b5chQOHOK3T-36">
          <mxGeometry y="52" width="290" height="8" as="geometry" />
        </mxCell>
        <mxCell id="X9zF3I0g8b5chQOHOK3T-46" value="+ RegisterObserver(IObserver&amp;lt;T&amp;gt;: observer): void" style="text;strokeColor=none;fillColor=none;align=left;verticalAlign=top;spacingLeft=4;spacingRight=4;overflow=hidden;rotatable=0;points=[[0,0.5],[1,0.5]];portConstraint=eastwest;whiteSpace=wrap;html=1;" vertex="1" parent="X9zF3I0g8b5chQOHOK3T-36">
          <mxGeometry y="60" width="290" height="26" as="geometry" />
        </mxCell>
        <mxCell id="X9zF3I0g8b5chQOHOK3T-48" value="+ RemoveObserver(IObserver&amp;lt;T&amp;gt;: observer): void" style="text;strokeColor=none;fillColor=none;align=left;verticalAlign=top;spacingLeft=4;spacingRight=4;overflow=hidden;rotatable=0;points=[[0,0.5],[1,0.5]];portConstraint=eastwest;whiteSpace=wrap;html=1;" vertex="1" parent="X9zF3I0g8b5chQOHOK3T-36">
          <mxGeometry y="86" width="290" height="26" as="geometry" />
        </mxCell>
        <mxCell id="X9zF3I0g8b5chQOHOK3T-47" value="+ NotifyObservers(): void" style="text;strokeColor=none;fillColor=none;align=left;verticalAlign=top;spacingLeft=4;spacingRight=4;overflow=hidden;rotatable=0;points=[[0,0.5],[1,0.5]];portConstraint=eastwest;whiteSpace=wrap;html=1;" vertex="1" parent="X9zF3I0g8b5chQOHOK3T-36">
          <mxGeometry y="112" width="290" height="26" as="geometry" />
        </mxCell>
        <mxCell id="X9zF3I0g8b5chQOHOK3T-49" value="# GetChangedData: T" style="text;strokeColor=none;fillColor=none;align=left;verticalAlign=top;spacingLeft=4;spacingRight=4;overflow=hidden;rotatable=0;points=[[0,0.5],[1,0.5]];portConstraint=eastwest;whiteSpace=wrap;html=1;" vertex="1" parent="X9zF3I0g8b5chQOHOK3T-36">
          <mxGeometry y="138" width="290" height="26" as="geometry" />
        </mxCell>
        <mxCell id="X9zF3I0g8b5chQOHOK3T-40" value="" style="endArrow=block;dashed=1;endFill=0;endSize=12;html=1;rounded=0;" edge="1" parent="1" source="X9zF3I0g8b5chQOHOK3T-36" target="X9zF3I0g8b5chQOHOK3T-30">
          <mxGeometry width="160" relative="1" as="geometry">
            <mxPoint x="360" y="570" as="sourcePoint" />
            <mxPoint x="520" y="570" as="targetPoint" />
          </mxGeometry>
        </mxCell>
        <mxCell id="X9zF3I0g8b5chQOHOK3T-41" value="" style="endArrow=diamondThin;endFill=0;endSize=24;html=1;rounded=0;" edge="1" parent="1" source="X9zF3I0g8b5chQOHOK3T-24" target="X9zF3I0g8b5chQOHOK3T-36">
          <mxGeometry width="160" relative="1" as="geometry">
            <mxPoint x="300" y="580" as="sourcePoint" />
            <mxPoint x="460" y="580" as="targetPoint" />
          </mxGeometry>
        </mxCell>
        <mxCell id="X9zF3I0g8b5chQOHOK3T-50" value="Extends" style="endArrow=block;endSize=16;endFill=0;html=1;rounded=0;" edge="1" parent="1" source="X9zF3I0g8b5chQOHOK3T-8" target="X9zF3I0g8b5chQOHOK3T-36">
          <mxGeometry x="0.4239" y="-4" width="160" relative="1" as="geometry">
            <mxPoint x="450" y="380" as="sourcePoint" />
            <mxPoint x="610" y="380" as="targetPoint" />
            <mxPoint as="offset" />
          </mxGeometry>
        </mxCell>
        <mxCell id="X9zF3I0g8b5chQOHOK3T-51" value="" style="endArrow=diamondThin;endFill=1;endSize=24;html=1;rounded=0;" edge="1" parent="1" source="X9zF3I0g8b5chQOHOK3T-8" target="X9zF3I0g8b5chQOHOK3T-2">
          <mxGeometry width="160" relative="1" as="geometry">
            <mxPoint x="330" y="260" as="sourcePoint" />
            <mxPoint x="490" y="260" as="targetPoint" />
          </mxGeometry>
        </mxCell>
        <mxCell id="X9zF3I0g8b5chQOHOK3T-52" value="Displays" style="shape=module;align=left;spacingLeft=20;align=center;verticalAlign=top;whiteSpace=wrap;html=1;" vertex="1" parent="1">
          <mxGeometry x="-413" y="220" width="413" height="590" as="geometry" />
        </mxCell>
        <mxCell id="X9zF3I0g8b5chQOHOK3T-53" value="Display" style="swimlane;fontStyle=1;align=center;verticalAlign=top;childLayout=stackLayout;horizontal=1;startSize=26;horizontalStack=0;resizeParent=1;resizeParentMax=0;resizeLast=0;collapsible=1;marginBottom=0;whiteSpace=wrap;html=1;" vertex="1" parent="1">
          <mxGeometry x="-230" y="270" width="190" height="60" as="geometry" />
        </mxCell>
        <mxCell id="X9zF3I0g8b5chQOHOK3T-55" value="" style="line;strokeWidth=1;fillColor=none;align=left;verticalAlign=middle;spacingTop=-1;spacingLeft=3;spacingRight=3;rotatable=0;labelPosition=right;points=[];portConstraint=eastwest;strokeColor=inherit;" vertex="1" parent="X9zF3I0g8b5chQOHOK3T-53">
          <mxGeometry y="26" width="190" height="8" as="geometry" />
        </mxCell>
        <mxCell id="X9zF3I0g8b5chQOHOK3T-56" value="- Update(WeatherInfo data): void" style="text;strokeColor=none;fillColor=none;align=left;verticalAlign=top;spacingLeft=4;spacingRight=4;overflow=hidden;rotatable=0;points=[[0,0.5],[1,0.5]];portConstraint=eastwest;whiteSpace=wrap;html=1;" vertex="1" parent="X9zF3I0g8b5chQOHOK3T-53">
          <mxGeometry y="34" width="190" height="26" as="geometry" />
        </mxCell>
        <mxCell id="X9zF3I0g8b5chQOHOK3T-57" value="Use" style="endArrow=open;endSize=12;dashed=1;html=1;rounded=0;" edge="1" parent="1" source="X9zF3I0g8b5chQOHOK3T-53" target="X9zF3I0g8b5chQOHOK3T-4">
          <mxGeometry width="160" relative="1" as="geometry">
            <mxPoint x="490" y="165" as="sourcePoint" />
            <mxPoint x="540" y="144" as="targetPoint" />
            <Array as="points">
              <mxPoint x="90" y="380" />
              <mxPoint x="600" y="380" />
            </Array>
          </mxGeometry>
        </mxCell>
        <mxCell id="X9zF3I0g8b5chQOHOK3T-58" value="StatDisplay" style="swimlane;fontStyle=1;align=center;verticalAlign=top;childLayout=stackLayout;horizontal=1;startSize=26;horizontalStack=0;resizeParent=1;resizeParentMax=0;resizeLast=0;collapsible=1;marginBottom=0;whiteSpace=wrap;html=1;" vertex="1" parent="1">
          <mxGeometry x="-370" y="350" width="360" height="440" as="geometry" />
        </mxCell>
        <mxCell id="X9zF3I0g8b5chQOHOK3T-62" value="- m_minTemperature: double" style="text;strokeColor=none;fillColor=none;align=left;verticalAlign=top;spacingLeft=4;spacingRight=4;overflow=hidden;rotatable=0;points=[[0,0.5],[1,0.5]];portConstraint=eastwest;whiteSpace=wrap;html=1;" vertex="1" parent="X9zF3I0g8b5chQOHOK3T-58">
          <mxGeometry y="26" width="360" height="26" as="geometry" />
        </mxCell>
        <mxCell id="X9zF3I0g8b5chQOHOK3T-63" value="- m_maxTemperature: double" style="text;strokeColor=none;fillColor=none;align=left;verticalAlign=top;spacingLeft=4;spacingRight=4;overflow=hidden;rotatable=0;points=[[0,0.5],[1,0.5]];portConstraint=eastwest;whiteSpace=wrap;html=1;" vertex="1" parent="X9zF3I0g8b5chQOHOK3T-58">
          <mxGeometry y="52" width="360" height="26" as="geometry" />
        </mxCell>
        <mxCell id="X9zF3I0g8b5chQOHOK3T-64" value="- m_accTemperature: double" style="text;strokeColor=none;fillColor=none;align=left;verticalAlign=top;spacingLeft=4;spacingRight=4;overflow=hidden;rotatable=0;points=[[0,0.5],[1,0.5]];portConstraint=eastwest;whiteSpace=wrap;html=1;" vertex="1" parent="X9zF3I0g8b5chQOHOK3T-58">
          <mxGeometry y="78" width="360" height="26" as="geometry" />
        </mxCell>
        <mxCell id="X9zF3I0g8b5chQOHOK3T-65" value="- m_minHumidity: double" style="text;strokeColor=none;fillColor=none;align=left;verticalAlign=top;spacingLeft=4;spacingRight=4;overflow=hidden;rotatable=0;points=[[0,0.5],[1,0.5]];portConstraint=eastwest;whiteSpace=wrap;html=1;" vertex="1" parent="X9zF3I0g8b5chQOHOK3T-58">
          <mxGeometry y="104" width="360" height="26" as="geometry" />
        </mxCell>
        <mxCell id="X9zF3I0g8b5chQOHOK3T-67" value="- m_maxHumidity: double" style="text;strokeColor=none;fillColor=none;align=left;verticalAlign=top;spacingLeft=4;spacingRight=4;overflow=hidden;rotatable=0;points=[[0,0.5],[1,0.5]];portConstraint=eastwest;whiteSpace=wrap;html=1;" vertex="1" parent="X9zF3I0g8b5chQOHOK3T-58">
          <mxGeometry y="130" width="360" height="26" as="geometry" />
        </mxCell>
        <mxCell id="X9zF3I0g8b5chQOHOK3T-68" value="- m_accHumidity: double" style="text;strokeColor=none;fillColor=none;align=left;verticalAlign=top;spacingLeft=4;spacingRight=4;overflow=hidden;rotatable=0;points=[[0,0.5],[1,0.5]];portConstraint=eastwest;whiteSpace=wrap;html=1;" vertex="1" parent="X9zF3I0g8b5chQOHOK3T-58">
          <mxGeometry y="156" width="360" height="26" as="geometry" />
        </mxCell>
        <mxCell id="X9zF3I0g8b5chQOHOK3T-70" value="- m_minPressure: double" style="text;strokeColor=none;fillColor=none;align=left;verticalAlign=top;spacingLeft=4;spacingRight=4;overflow=hidden;rotatable=0;points=[[0,0.5],[1,0.5]];portConstraint=eastwest;whiteSpace=wrap;html=1;" vertex="1" parent="X9zF3I0g8b5chQOHOK3T-58">
          <mxGeometry y="182" width="360" height="26" as="geometry" />
        </mxCell>
        <mxCell id="X9zF3I0g8b5chQOHOK3T-71" value="- m_maxPressure: double" style="text;strokeColor=none;fillColor=none;align=left;verticalAlign=top;spacingLeft=4;spacingRight=4;overflow=hidden;rotatable=0;points=[[0,0.5],[1,0.5]];portConstraint=eastwest;whiteSpace=wrap;html=1;" vertex="1" parent="X9zF3I0g8b5chQOHOK3T-58">
          <mxGeometry y="208" width="360" height="26" as="geometry" />
        </mxCell>
        <mxCell id="X9zF3I0g8b5chQOHOK3T-72" value="- m_accPressure: double" style="text;strokeColor=none;fillColor=none;align=left;verticalAlign=top;spacingLeft=4;spacingRight=4;overflow=hidden;rotatable=0;points=[[0,0.5],[1,0.5]];portConstraint=eastwest;whiteSpace=wrap;html=1;" vertex="1" parent="X9zF3I0g8b5chQOHOK3T-58">
          <mxGeometry y="234" width="360" height="26" as="geometry" />
        </mxCell>
        <mxCell id="X9zF3I0g8b5chQOHOK3T-69" value="- m_countAcc: double" style="text;strokeColor=none;fillColor=none;align=left;verticalAlign=top;spacingLeft=4;spacingRight=4;overflow=hidden;rotatable=0;points=[[0,0.5],[1,0.5]];portConstraint=eastwest;whiteSpace=wrap;html=1;" vertex="1" parent="X9zF3I0g8b5chQOHOK3T-58">
          <mxGeometry y="260" width="360" height="26" as="geometry" />
        </mxCell>
        <mxCell id="X9zF3I0g8b5chQOHOK3T-59" value="" style="line;strokeWidth=1;fillColor=none;align=left;verticalAlign=middle;spacingTop=-1;spacingLeft=3;spacingRight=3;rotatable=0;labelPosition=right;points=[];portConstraint=eastwest;strokeColor=inherit;" vertex="1" parent="X9zF3I0g8b5chQOHOK3T-58">
          <mxGeometry y="286" width="360" height="8" as="geometry" />
        </mxCell>
        <mxCell id="X9zF3I0g8b5chQOHOK3T-60" value="- Update(WeatherInfo data): void" style="text;strokeColor=none;fillColor=none;align=left;verticalAlign=top;spacingLeft=4;spacingRight=4;overflow=hidden;rotatable=0;points=[[0,0.5],[1,0.5]];portConstraint=eastwest;whiteSpace=wrap;html=1;" vertex="1" parent="X9zF3I0g8b5chQOHOK3T-58">
          <mxGeometry y="294" width="360" height="26" as="geometry" />
        </mxCell>
        <mxCell id="X9zF3I0g8b5chQOHOK3T-73" value="- UpdateData(WeatherInfo data): void" style="text;strokeColor=none;fillColor=none;align=left;verticalAlign=top;spacingLeft=4;spacingRight=4;overflow=hidden;rotatable=0;points=[[0,0.5],[1,0.5]];portConstraint=eastwest;whiteSpace=wrap;html=1;" vertex="1" parent="X9zF3I0g8b5chQOHOK3T-58">
          <mxGeometry y="320" width="360" height="26" as="geometry" />
        </mxCell>
        <mxCell id="X9zF3I0g8b5chQOHOK3T-74" value="- PrintData(): void" style="text;strokeColor=none;fillColor=none;align=left;verticalAlign=top;spacingLeft=4;spacingRight=4;overflow=hidden;rotatable=0;points=[[0,0.5],[1,0.5]];portConstraint=eastwest;whiteSpace=wrap;html=1;" vertex="1" parent="X9zF3I0g8b5chQOHOK3T-58">
          <mxGeometry y="346" width="360" height="26" as="geometry" />
        </mxCell>
        <mxCell id="X9zF3I0g8b5chQOHOK3T-75" value="- UpdateBounds(min: double, max: double, value: double): void" style="text;strokeColor=none;fillColor=none;align=left;verticalAlign=top;spacingLeft=4;spacingRight=4;overflow=hidden;rotatable=0;points=[[0,0.5],[1,0.5]];portConstraint=eastwest;whiteSpace=wrap;html=1;" vertex="1" parent="X9zF3I0g8b5chQOHOK3T-58">
          <mxGeometry y="372" width="360" height="26" as="geometry" />
        </mxCell>
        <mxCell id="X9zF3I0g8b5chQOHOK3T-76" value="- PrintStatData(name: string, min: double. max: double, average: doible): void" style="text;strokeColor=none;fillColor=none;align=left;verticalAlign=top;spacingLeft=4;spacingRight=4;overflow=hidden;rotatable=0;points=[[0,0.5],[1,0.5]];portConstraint=eastwest;whiteSpace=wrap;html=1;" vertex="1" parent="X9zF3I0g8b5chQOHOK3T-58">
          <mxGeometry y="398" width="360" height="42" as="geometry" />
        </mxCell>
        <mxCell id="X9zF3I0g8b5chQOHOK3T-61" value="Use" style="endArrow=open;endSize=12;dashed=1;html=1;rounded=0;" edge="1" parent="1" source="X9zF3I0g8b5chQOHOK3T-58" target="X9zF3I0g8b5chQOHOK3T-4">
          <mxGeometry x="-0.0323" width="160" relative="1" as="geometry">
            <mxPoint x="30" y="340" as="sourcePoint" />
            <mxPoint x="190" y="340" as="targetPoint" />
            <Array as="points">
              <mxPoint x="80" y="400" />
              <mxPoint x="600" y="400" />
            </Array>
            <mxPoint as="offset" />
          </mxGeometry>
        </mxCell>
        <mxCell id="X9zF3I0g8b5chQOHOK3T-77" value="" style="endArrow=block;dashed=1;endFill=0;endSize=12;html=1;rounded=0;" edge="1" parent="1" source="X9zF3I0g8b5chQOHOK3T-58" target="X9zF3I0g8b5chQOHOK3T-24">
          <mxGeometry width="160" relative="1" as="geometry">
            <mxPoint x="30" y="510" as="sourcePoint" />
            <mxPoint x="190" y="510" as="targetPoint" />
          </mxGeometry>
        </mxCell>
        <mxCell id="X9zF3I0g8b5chQOHOK3T-78" value="" style="endArrow=block;dashed=1;endFill=0;endSize=12;html=1;rounded=0;" edge="1" parent="1" source="X9zF3I0g8b5chQOHOK3T-53" target="X9zF3I0g8b5chQOHOK3T-24">
          <mxGeometry width="160" relative="1" as="geometry">
            <mxPoint y="627" as="sourcePoint" />
            <mxPoint x="110" y="655" as="targetPoint" />
            <Array as="points">
              <mxPoint x="40" y="340" />
              <mxPoint x="40" y="600" />
            </Array>
          </mxGeometry>
        </mxCell>
        <mxCell id="X9zF3I0g8b5chQOHOK3T-79" value="" style="endArrow=diamondThin;endFill=1;endSize=24;html=1;rounded=0;" edge="1" parent="1" source="X9zF3I0g8b5chQOHOK3T-53" target="X9zF3I0g8b5chQOHOK3T-2">
          <mxGeometry width="160" relative="1" as="geometry">
            <mxPoint x="60" y="300" as="sourcePoint" />
            <mxPoint x="220" y="300" as="targetPoint" />
          </mxGeometry>
        </mxCell>
        <mxCell id="X9zF3I0g8b5chQOHOK3T-80" value="" style="endArrow=diamondThin;endFill=1;endSize=24;html=1;rounded=0;" edge="1" parent="1" source="X9zF3I0g8b5chQOHOK3T-58" target="X9zF3I0g8b5chQOHOK3T-2">
          <mxGeometry width="160" relative="1" as="geometry">
            <mxPoint x="-94" y="280" as="sourcePoint" />
            <mxPoint x="112" y="80" as="targetPoint" />
          </mxGeometry>
        </mxCell>
      </root>
    </mxGraphModel>
  </diagram>
</mxfile>
